<svg xmlns="http://www.w3.org/2000/svg" width="1000" height="1000" fill="none">
  <path fill="#fff" d="M0 0h840a160 160 0 0 1 160 160v680a160 160 0 0 1-160 160H160A160 160 0 0 1 0 840V0Z"/>
  <path fill="#000" d="M817.5 923.1c-32.3 0-57-9.4-74.3-28.3-17.1-19-26-46.1-26.8-81.5H786c.4 31.3 11.4 47 33 47 11 0 18.8-3.5 23.3-10.4 4.4-6.9 6.7-17.9 6.7-33 0-12-3-22-8.8-29.9a73 73 0 0 0-29.4-21.1L785 753.5c-23-11-39.7-24-50-39.2-10-15.1-15-36.3-15-63.4 0-30.3 8.8-54.9 26.3-73.8 18-18.9 42.5-28.3 73.8-28.3 30.2 0 53.6 9.3 70.1 27.8 16.8 18.6 25.6 45.2 26.3 80h-67a72 72 0 0 0-6.7-33c-3.8-7.6-11.2-11.4-22.2-11.4-19.6 0-29.4 11.7-29.4 35 0 11.8 2.4 21 7.2 28a65 65 0 0 0 25.3 17.4l24.7 10.9c25.5 11.7 43.9 26 55.2 43.3 11.4 17.2 17 40.2 17 69 0 34.5-9 61-27.3 79.5-18.2 18.5-43.5 27.8-75.8 27.8Zm-224.8 0c-32.3 0-57-9.4-74.3-28.3-17.1-19-26-46.1-26.8-81.5h69.6c.4 31.3 11.4 47 33 47 11 0 18.8-3.5 23.2-10.4 4.5-6.9 6.7-17.9 6.7-33 0-12-2.9-22-8.7-29.9a73 73 0 0 0-29.4-21.1l-25.8-12.4c-23-11-39.7-24-50-39.2-10-15.1-15-36.3-15-63.4 0-30.3 8.8-54.9 26.3-73.8 18-18.9 42.5-28.3 73.8-28.3 30.2 0 53.6 9.3 70 27.8 17 18.6 25.7 45.2 26.4 80h-67a72 72 0 0 0-6.7-33c-3.8-7.6-11.2-11.4-22.2-11.4-19.6 0-29.4 11.7-29.4 35 0 11.8 2.4 21 7.2 28a65 65 0 0 0 25.3 17.4l24.7 10.9c25.5 11.7 43.9 26 55.2 43.3 11.3 17.2 17 40.2 17 69 0 34.5-9.1 61-27.3 79.5-18.2 18.5-43.5 27.8-75.8 27.8Zm-234.1 0c-31.6 0-56.7-8.6-75.3-25.8-18.6-17.1-27.8-42.8-27.8-76.8v-168c0-33.8 9.8-59.4 29.4-77 19.9-17.4 46-26.2 78.3-26.2 31.3 0 56 9 74.3 26.8 18.5 17.9 27.8 44.5 27.8 80v13.3h-73.7v-12.9c0-13.7-3-23.8-8.8-30.4a26.4 26.4 0 0 0-21.6-10.3c-12 0-20.5 4.1-25.3 12.4a79 79 0 0 0-6.7 36.6v146c0 30.5 10.7 46 32 46.3 10 0 17.5-3.6 22.7-10.8a51.7 51.7 0 0 0 7.7-30.4V805h73.7v11.4c0 23.7-4.6 43.5-13.9 59.3a88.6 88.6 0 0 1-38.1 35.6 121 121 0 0 1-54.7 11.8Z"/>
</svg>
